<?xml version="1.0" standalone="no"?>
<!DOCTYPE svg PUBLIC "-//W3C//DTD SVG 20010904//EN"
 "http://www.w3.org/TR/2001/REC-SVG-20010904/DTD/svg10.dtd">
<svg version="1.0" xmlns="http://www.w3.org/2000/svg"
 width="300.000000pt" height="300.000000pt" viewBox="0 0 300.000000 300.000000"
 preserveAspectRatio="xMidYMid meet">
<metadata>
Created by potrace 1.14, written by Peter Selinger 2001-2017
</metadata>
<g transform="translate(0.000000,300.000000) scale(0.100000,-0.100000)"
fill="#000000" stroke="none">
<path d="M1140 2849 c-24 -11 -47 -24 -50 -28 -3 -5 -19 -15 -36 -24 -35 -18
-75 -63 -116 -130 -47 -75 -37 -166 25 -231 15 -16 27 -32 27 -36 0 -19 90
-42 180 -46 66 -2 124 14 163 46 17 14 60 86 62 102 0 3 3 9 7 13 4 4 4 13 1
21 -3 8 0 14 6 14 9 0 10 90 1 110 -1 3 -3 10 -5 15 -1 6 -3 12 -4 15 -2 3 -4
12 -6 20 -6 30 -33 85 -52 107 -23 26 -92 53 -132 53 -14 0 -46 -10 -71 -21z"/>
<path d="M266 2583 c-3 -3 -19 -7 -36 -9 -16 -2 -42 -11 -56 -20 -27 -18 -57
-68 -47 -78 4 -3 1 -6 -6 -6 -7 0 -10 -4 -7 -8 3 -5 -2 -22 -11 -38 -11 -20
-16 -56 -17 -118 l-1 -88 50 -45 c89 -79 143 -98 226 -82 64 13 155 78 175
126 10 23 11 153 1 193 -2 8 -7 29 -11 46 -7 29 -85 114 -106 114 -5 0 -10 4
-10 9 0 9 -135 13 -144 4z"/>
<path d="M1936 2320 c-26 -5 -55 -12 -65 -16 -9 -4 -18 -8 -21 -9 -37 -10 -61
-26 -109 -74 -54 -54 -56 -58 -57 -111 -1 -30 -4 -70 -7 -87 -3 -18 -2 -33 2
-33 4 0 6 -33 5 -72 -1 -40 -3 -73 -4 -73 -2 0 -4 -61 -5 -135 -2 -139 -7
-204 -24 -325 -5 -38 -12 -115 -16 -170 -3 -55 -8 -118 -11 -140 -6 -36 -14
-334 -12 -395 0 -14 1 -51 2 -82 1 -32 4 -58 9 -58 4 0 7 -11 7 -24 0 -26 66
-97 97 -104 10 -2 54 -4 98 -5 138 -2 169 29 190 189 8 57 17 109 20 114 10
17 20 69 29 150 1 14 5 30 8 35 3 6 9 28 13 50 10 61 16 76 25 70 5 -3 10 1
13 7 9 25 115 -103 119 -142 0 -3 13 -21 29 -41 30 -38 89 -150 89 -169 0 -19
40 -90 51 -90 6 0 7 -4 4 -10 -3 -5 1 -20 10 -33 8 -13 12 -27 8 -30 -3 -4 -1
-7 5 -7 7 0 12 -7 12 -15 0 -38 32 -74 87 -101 72 -36 132 -44 226 -31 80 10
132 41 147 86 7 22 13 50 14 63 1 39 -16 148 -23 148 -4 0 -7 10 -7 23 -1 12
-18 51 -38 85 -21 35 -39 69 -40 75 -3 17 -34 65 -73 111 -18 22 -33 46 -33
53 0 7 -5 13 -12 13 -6 0 -9 3 -5 6 3 4 -9 20 -28 37 -19 17 -35 36 -35 42 0
6 -9 21 -20 33 -12 12 -18 22 -15 22 9 0 -48 73 -102 132 -77 84 -69 100 181
363 42 44 76 82 76 86 0 3 8 15 18 27 9 11 24 30 32 42 8 12 28 39 43 61 67
92 117 213 110 269 -5 49 -41 118 -72 138 -14 9 -29 21 -33 26 -3 5 -17 10
-30 12 -12 1 -23 3 -23 4 0 1 -26 3 -58 5 -55 3 -60 1 -90 -32 -18 -19 -49
-52 -69 -74 -21 -22 -38 -42 -38 -44 0 -3 -8 -14 -17 -24 -24 -25 -56 -64
-100 -120 -21 -25 -50 -59 -66 -76 -16 -16 -29 -34 -30 -40 0 -5 -13 -23 -29
-40 -15 -16 -28 -33 -28 -37 0 -13 -51 -58 -65 -58 -17 0 -17 -1 -21 145 -2
61 -4 119 -5 130 -1 11 1 63 5 115 7 89 6 97 -14 123 -12 16 -25 26 -27 23 -3
-3 -18 1 -34 9 -30 16 -94 18 -173 5z"/>
<path d="M979 2226 c-2 -3 -18 -7 -34 -10 -17 -2 -30 -5 -30 -6 0 -1 -17 -3
-37 -4 -92 -5 -157 -67 -166 -157 -5 -50 13 -129 29 -129 5 0 6 -7 3 -15 -4
-8 -1 -15 5 -15 6 0 10 -3 10 -7 -1 -5 -1 -10 1 -13 1 -3 4 -16 6 -30 3 -14
16 -41 29 -60 14 -20 25 -43 25 -52 0 -9 5 -29 11 -45 7 -15 13 -35 15 -43 5
-25 12 -55 14 -55 1 0 3 -16 5 -35 5 -43 12 -77 19 -89 8 -12 37 -181 37 -208
-1 -12 3 -24 7 -27 4 -2 7 -21 7 -40 -1 -20 1 -36 5 -36 7 0 7 -2 13 -72 2
-27 7 -51 10 -55 4 -3 2 -12 -4 -20 -8 -9 -8 -13 -1 -13 6 0 9 -10 6 -23 -3
-12 -7 -42 -9 -67 -8 -95 -29 -168 -52 -183 -7 -4 -18 -13 -25 -20 -24 -22
-76 -47 -102 -49 -14 -1 -26 -5 -26 -8 0 -3 -17 -5 -38 -4 -49 1 -130 46 -164
90 -27 36 -43 108 -33 154 3 14 8 66 11 116 l7 91 -42 41 c-24 23 -46 43 -49
43 -28 5 -194 3 -198 -2 -2 -3 -15 -4 -29 -1 -14 2 -35 -2 -48 -10 -29 -20
-69 -101 -74 -152 -21 -243 -22 -286 -6 -340 38 -128 107 -241 175 -285 26
-17 52 -31 57 -31 6 0 11 -4 11 -8 0 -5 6 -9 13 -10 49 -5 91 -12 147 -27 36
-9 89 -18 118 -18 28 -1 52 -6 52 -11 0 -4 6 -4 13 1 6 6 37 11 68 12 53 2
214 33 214 41 0 1 11 3 24 6 14 2 30 9 38 15 7 6 13 8 13 4 0 -4 7 -2 15 5 8
6 19 9 25 5 5 -3 10 -3 10 2 0 4 33 24 73 43 86 41 120 72 181 165 25 39 50
76 56 83 6 6 9 12 6 12 -3 0 2 16 10 35 8 19 11 35 8 35 -4 0 -2 6 3 13 5 6
16 38 23 69 12 55 12 100 -6 288 -3 36 -6 73 -6 83 1 9 -3 17 -7 17 -4 0 -6
19 -5 42 1 24 -1 47 -4 53 -4 5 -7 18 -8 28 -1 9 -2 18 -4 20 -5 6 -13 65 -14
99 -1 21 -4 38 -8 38 -5 0 -8 10 -8 22 0 23 -15 113 -31 188 -6 25 -10 51 -11
58 -1 6 -5 12 -10 12 -4 0 -7 3 -6 8 1 4 -7 50 -20 102 -12 52 -24 116 -27
142 -4 26 -13 54 -21 62 -8 8 -14 21 -14 29 0 20 -52 71 -86 84 -53 21 -155
38 -165 29z"/>
</g>
</svg>
