<?xml version="1.0" standalone="no"?>
<!DOCTYPE svg PUBLIC "-//W3C//DTD SVG 20010904//EN"
 "http://www.w3.org/TR/2001/REC-SVG-20010904/DTD/svg10.dtd">
<svg version="1.0" xmlns="http://www.w3.org/2000/svg"
 width="300.000000pt" height="300.000000pt" viewBox="0 0 300.000000 300.000000"
 preserveAspectRatio="xMidYMid meet">
<metadata>
Created by potrace 1.14, written by Peter Selinger 2001-2017
</metadata>
<g transform="translate(0.000000,300.000000) scale(0.100000,-0.100000)"
fill="#000000" stroke="none">
<path d="M1140 2849 c-24 -11 -47 -24 -50 -28 -3 -5 -18 -15 -35 -24 -33 -16
-98 -84 -103 -106 -2 -8 -12 -25 -23 -39 -13 -17 -19 -40 -19 -78 0 -66 13
-97 65 -152 31 -32 53 -45 96 -57 98 -25 207 -10 262 35 17 14 51 70 57 95 2
6 9 24 16 40 27 67 -10 228 -67 284 -27 28 -88 51 -130 51 -13 0 -44 -10 -69
-21z m118 -149 c18 -17 22 -32 22 -80 0 -95 -10 -108 -107 -139 -20 -6 -35 -6
-38 0 -4 5 -15 9 -26 9 -34 0 -74 50 -75 93 0 20 4 37 9 37 4 0 6 4 3 8 -3 5
7 23 22 40 20 23 40 34 77 41 77 14 90 13 113 -9z"/>
<path d="M265 2582 c-3 -3 -19 -7 -36 -8 -17 -1 -37 -8 -45 -14 -8 -7 -14 -9
-14 -4 0 5 -11 -9 -25 -30 -13 -22 -22 -43 -19 -48 3 -4 0 -8 -6 -8 -6 0 -9
-4 -6 -8 3 -5 -2 -22 -11 -38 -11 -20 -16 -58 -17 -118 l-1 -88 50 -45 c88
-78 145 -99 227 -82 78 17 161 80 177 134 12 45 5 175 -14 235 -8 27 -87 110
-104 110 -6 0 -11 4 -11 9 0 10 -135 13 -145 3z m101 -144 c36 -24 64 -75 64
-114 0 -29 -85 -115 -106 -107 -8 3 -14 1 -14 -5 0 -5 -11 -7 -24 -5 -44 9
-68 91 -52 181 13 71 70 92 132 50z"/>
<path d="M1925 2318 c-22 -5 -47 -11 -55 -14 -8 -3 -16 -5 -18 -4 -12 4 -76
-42 -117 -84 -48 -48 -51 -54 -51 -106 0 -30 -3 -70 -6 -87 -4 -18 -3 -33 0
-33 4 0 6 -26 5 -57 -2 -32 -5 -128 -7 -213 -4 -159 -8 -214 -25 -335 -5 -38
-13 -117 -16 -175 -4 -58 -9 -116 -11 -130 -5 -24 -14 -350 -12 -400 0 -14 1
-51 2 -82 1 -32 4 -58 9 -58 4 0 7 -10 7 -22 0 -13 16 -40 34 -60 40 -43 89
-58 181 -54 110 5 151 44 167 160 16 127 18 139 24 147 7 11 15 46 19 84 5 38
13 79 24 130 6 22 13 53 16 68 3 15 10 25 14 22 5 -3 11 1 14 7 7 19 101 -87
117 -130 7 -20 16 -39 20 -42 15 -11 67 -98 84 -140 10 -25 34 -79 54 -120 21
-41 36 -78 34 -82 -1 -5 2 -8 8 -8 5 0 10 -7 10 -15 0 -34 31 -73 77 -96 26
-13 50 -26 53 -29 12 -12 138 -15 195 -6 22 4 58 16 81 27 35 16 44 27 57 69
9 27 13 61 10 77 -3 15 -5 35 -5 43 0 8 -5 33 -10 55 -6 22 -11 47 -13 55 -2
9 -19 43 -39 77 -20 34 -36 68 -36 76 0 8 -7 20 -15 27 -8 7 -15 18 -15 24 0
6 -13 23 -29 38 -15 16 -34 40 -42 55 -8 16 -18 31 -24 35 -5 4 -6 8 -2 8 5 0
-7 14 -27 32 -20 17 -36 36 -36 40 0 16 -80 128 -131 184 -51 56 -59 85 -38
127 11 20 84 103 233 262 31 33 58 68 62 78 3 9 10 17 15 17 5 0 9 6 9 13 0 7
9 19 20 27 11 8 20 19 20 25 0 6 14 26 32 45 17 19 31 36 30 38 -6 7 0 22 11
34 16 16 58 122 62 158 5 40 -23 116 -54 147 -62 62 -83 70 -175 69 -56 -1
-60 -3 -90 -41 -17 -22 -46 -54 -63 -72 -18 -18 -33 -35 -33 -38 0 -3 -8 -14
-17 -24 -20 -22 -40 -45 -102 -122 -24 -30 -52 -61 -62 -70 -10 -9 -26 -29
-36 -45 -61 -98 -112 -148 -131 -129 -4 4 -7 117 -7 251 -1 272 1 265 -72 291
-41 14 -123 15 -188 1z m85 -97 c0 -5 8 -7 18 -5 40 10 47 -9 49 -148 4 -190
17 -382 29 -413 17 -44 61 -63 108 -46 36 14 39 18 119 134 38 53 71 97 75 97
4 0 18 18 32 40 14 22 28 40 32 40 4 0 9 8 13 18 3 9 24 37 46 62 23 25 48 56
57 70 27 42 75 90 117 120 l40 28 38 -20 c27 -13 44 -32 57 -61 17 -37 17 -44
4 -77 -18 -43 -60 -114 -77 -132 -7 -7 -28 -36 -47 -65 -39 -57 -149 -182
-224 -252 -26 -25 -66 -71 -87 -102 -21 -31 -46 -64 -54 -73 -9 -9 -13 -16 -9
-16 3 0 2 -6 -4 -12 -19 -24 9 -91 66 -159 38 -46 48 -58 62 -79 8 -12 21 -28
28 -36 6 -7 12 -16 12 -21 1 -4 14 -24 30 -43 17 -19 30 -40 30 -46 0 -7 4
-14 8 -16 10 -4 127 -165 128 -176 0 -4 23 -54 52 -110 29 -57 50 -108 47
-112 -3 -5 -1 -11 3 -14 5 -3 9 -25 10 -50 2 -45 2 -45 -40 -57 -88 -26 -214
-2 -225 41 -3 11 -8 20 -12 20 -3 0 -12 15 -19 33 -7 17 -18 41 -24 52 -21 37
-37 69 -77 155 -45 97 -81 162 -96 172 -7 5 -7 8 0 8 7 0 7 3 0 8 -11 8 -55
69 -55 76 0 13 -78 85 -100 91 -72 23 -140 -7 -156 -69 -3 -14 -10 -26 -15
-26 -5 0 -6 -6 -3 -14 3 -8 0 -34 -7 -57 -7 -24 -13 -53 -14 -64 -1 -11 -3
-22 -5 -25 -1 -3 -3 -23 -5 -45 -2 -22 -6 -51 -10 -65 -4 -14 -13 -65 -21
-113 -12 -78 -34 -134 -53 -138 -3 -1 -30 -3 -59 -4 -110 -4 -117 25 -101 410
7 154 13 303 14 330 3 64 18 190 25 198 1 1 3 31 3 67 1 36 5 70 8 75 3 6 4
26 3 45 -5 60 -2 308 5 452 1 23 70 87 101 94 14 3 33 9 42 14 9 5 26 7 37 5
11 -2 23 0 26 6 8 12 25 12 25 0z"/>
<path d="M950 2219 c-19 -5 -54 -11 -77 -14 -60 -6 -143 -52 -126 -69 4 -3 2
-6 -4 -6 -32 0 -43 -124 -17 -186 9 -22 21 -50 27 -64 5 -14 12 -34 14 -45 2
-11 13 -33 24 -48 16 -22 43 -99 62 -182 1 -5 5 -14 8 -20 3 -5 5 -27 4 -47 0
-21 3 -38 9 -38 5 0 6 -3 3 -6 -3 -4 -2 -15 3 -24 5 -10 16 -60 25 -112 8 -51
17 -104 20 -118 3 -14 7 -38 10 -55 2 -16 7 -41 10 -55 4 -14 8 -44 9 -66 2
-23 6 -46 10 -52 3 -6 0 -13 -6 -15 -10 -4 -10 -6 0 -6 7 -1 11 -5 8 -10 -3
-5 -8 -38 -12 -73 -8 -93 -9 -102 -18 -116 -4 -6 -4 -16 -1 -22 3 -5 1 -10 -5
-10 -6 0 -9 -4 -6 -9 7 -11 -51 -62 -94 -83 -89 -42 -128 -43 -200 -5 -102 53
-127 110 -110 255 16 140 14 164 -17 199 -52 56 -67 61 -196 58 -93 -3 -123
-7 -146 -22 -16 -10 -29 -20 -29 -23 -1 -5 -6 -20 -32 -86 -5 -12 -12 -66 -15
-120 -3 -55 -8 -122 -10 -151 -3 -49 11 -132 24 -143 3 -3 7 -12 9 -20 5 -28
44 -104 75 -150 37 -53 60 -74 107 -97 19 -9 37 -19 40 -22 6 -7 17 -10 85
-21 28 -5 79 -15 115 -23 36 -8 104 -13 151 -11 93 2 229 22 229 32 0 4 12 8
28 8 15 1 41 7 57 14 17 7 35 14 40 15 6 2 17 4 25 6 8 2 17 7 20 10 3 4 37
21 75 39 80 37 135 89 191 182 21 35 40 65 43 68 3 3 8 12 10 20 2 8 15 51 28
95 23 74 24 90 18 208 -3 71 -8 138 -11 150 -2 12 -6 42 -10 67 -12 102 -20
155 -24 155 -4 0 -14 64 -14 98 -1 20 -4 37 -7 37 -6 0 -10 22 -28 160 -5 36
-15 81 -23 100 -8 19 -13 41 -11 48 3 6 -1 12 -8 12 -7 0 -10 3 -6 6 3 3 -1
27 -9 52 -8 26 -19 79 -24 118 -14 107 -60 185 -126 212 -57 24 -148 34 -194
21z m160 -92 c38 -19 69 -85 80 -171 5 -42 14 -85 19 -95 6 -10 8 -21 4 -24
-3 -4 0 -13 7 -22 7 -9 10 -18 7 -22 -4 -3 -2 -12 4 -19 6 -8 9 -20 6 -29 -4
-8 -2 -17 4 -20 5 -4 9 -12 7 -18 -1 -7 1 -21 5 -32 4 -11 11 -49 16 -85 6
-36 15 -92 20 -125 6 -33 13 -76 15 -95 3 -19 8 -46 11 -60 3 -14 8 -36 11
-50 3 -14 7 -42 9 -63 3 -21 7 -42 9 -46 3 -4 8 -54 11 -111 4 -58 9 -108 11
-111 5 -9 -18 -139 -25 -139 -3 0 -7 -11 -7 -24 -4 -55 -142 -255 -166 -240
-4 3 -8 0 -8 -6 0 -6 -4 -8 -10 -5 -5 3 -10 3 -10 -2 0 -10 -45 -30 -95 -44
-19 -6 -35 -14 -35 -20 0 -6 -4 -8 -9 -4 -5 3 -12 1 -16 -5 -4 -6 -11 -8 -16
-5 -5 4 -9 1 -9 -4 0 -6 -3 -10 -7 -9 -5 1 -44 -6 -88 -16 -64 -15 -107 -17
-225 -14 -84 3 -158 10 -175 18 -16 7 -41 14 -54 16 -13 2 -31 6 -40 10 -9 4
-18 8 -21 8 -12 3 -55 30 -65 40 -21 23 -65 96 -65 109 0 7 -5 18 -12 25 -7 7
-8 12 -4 12 5 0 3 7 -4 15 -7 8 -10 15 -6 15 4 0 -1 15 -10 32 -18 34 -21 164
-8 277 7 56 39 125 54 116 5 -3 11 -1 15 5 3 5 16 8 28 5 12 -2 42 -7 66 -9
25 -3 56 -13 70 -24 26 -19 26 -21 27 -153 1 -146 10 -178 72 -244 66 -71 178
-124 253 -120 45 3 151 56 198 98 25 23 60 94 67 137 9 52 12 65 15 65 11 0
19 237 8 279 -5 23 -11 52 -13 66 -9 68 -23 145 -26 145 -1 0 -3 9 -5 19 -2
11 -12 52 -21 90 -10 39 -17 75 -16 80 2 5 0 16 -4 25 -8 19 -13 38 -18 66 -1
11 -6 29 -9 40 -4 11 -9 34 -11 50 -5 36 -50 159 -72 197 -8 15 -14 30 -14 33
0 3 -8 26 -20 51 -11 26 -20 54 -20 64 0 35 53 62 150 76 19 3 36 7 39 9 9 10
97 4 121 -8z"/>
</g>
</svg>
